# xmcd
#
# Track frame offsets:
#	150
#	14267
#	31960
#	45570
#	63552
#	77794
#	91917
#	108269
#	124249
#	141364
#	155537
#	173447
#	188930
#	206921
#	219905
#	234362
#	250457
#	268410
#
# Disc length: 3779 seconds
# Revision: 3
# Processed by: cddbd v1.5.2PL0 Copyright (c) Steve Scherf et al.
# Submitted via: dBpowerAMP V12.0
#
DISCID=fe0ec112
DTITLE=Terri Clark - Terri Clark - The Definitive Collection
DYEAR=2008
DGENRE=Country
TTITLE0=Better Things To Do
TTITLE1=If I Were You
TTITLE2=When Boy Meets Girl
TTITLE3=Suddenly Single
TTITLE4=Poor Poor Pitiful Me
TTITLE5=Emotional Girl
TTITLE6=Now That I Found You
TTITLE7=You're Easy On The Eyes
TTITLE8=Everytime I Cry
TTITLE9=A Little Gasoline
TTITLE10=No Fear
TTITLE11=I Just Wanna Be Mad
TTITLE12=Three Mississippi
TTITLE13=I Wanna Do It All
TTITLE14=One Of The Guys
TTITLE15=Girls Lie Too
TTITLE16=The World Needs A Drink
TTITLE17=She Didn't Have Time
EXTD=
EXTT0=
EXTT1=
EXTT2=
EXTT3=
EXTT4=
EXTT5=
EXTT6=
EXTT7=
EXTT8=
EXTT9=
EXTT10=
EXTT11=
EXTT12=
EXTT13=
EXTT14=
EXTT15=
EXTT16=
EXTT17=
PLAYORDER=
